<svg width="12" height="12" viewBox="0 0 12 12" fill="none" xmlns="http://www.w3.org/2000/svg">
<path d="M9.82516 4.52L7.40516 4.31L6.46016 2.085C6.29016 1.68 5.71016 1.68 5.54016 2.085L4.59516 4.315L2.18016 4.52C1.74016 4.555 1.56016 5.105 1.89516 5.395L3.73016 6.985L3.18016 9.345C3.08016 9.775 3.54516 10.115 3.92516 9.885L6.00016 8.635L8.07516 9.89C8.45516 10.12 8.92016 9.78 8.82016 9.35L8.27016 6.985L10.1052 5.395C10.4402 5.105 10.2652 4.555 9.82516 4.52ZM6.00016 7.7V3.05L6.85516 5.07L9.04516 5.26L7.38516 6.7L7.88516 8.84L6.00016 7.7Z" fill="#FFBB0C"/>
</svg>
