<svg width="210" height="44" viewBox="0 0 210 44" fill="none" xmlns="http://www.w3.org/2000/svg">
<g clip-path="url(#clip0_14_468)">
<path d="M63.0281 1.89077C62.9812 1.81328 62.95 1.72029 62.9031 1.6428C62.4654 0.852376 61.5587 0.294434 60.527 0.294434C59.4953 0.294434 58.4948 0.898872 58.0884 1.75128C58.0728 1.78228 58.0571 1.81328 58.0415 1.85977C55.0558 8.01264 53.3832 14.8319 53.3832 22.0077C53.3832 29.1835 55.0558 35.9873 58.0415 42.1402C58.0571 42.1866 58.0728 42.2176 58.104 42.2641C58.5261 43.1166 59.464 43.7055 60.5426 43.7055C61.6212 43.7055 62.481 43.163 62.9187 42.3726C62.9656 42.2796 62.9968 42.2021 63.0437 42.1092C66.0138 35.9563 67.6708 29.168 67.6708 22.0077C67.6708 14.8474 66.0138 8.05914 63.0437 1.90627L63.0281 1.89077Z" fill="url(#paint0_linear_14_468)"/>
<path d="M79.5042 43.6747C77.7066 43.6747 76.4247 43.4113 75.6275 42.8688C74.8303 42.3264 74.3301 41.629 74.1268 40.761C73.9236 39.8931 73.8142 38.9632 73.8142 37.9713V5.9206C73.8142 5.0062 73.8924 4.12279 74.0643 3.25488C74.2363 2.38697 74.7052 1.67404 75.5025 1.1161C76.2997 0.558153 77.644 0.29468 79.5668 0.341175H90.3216C93.276 0.341175 96.0741 0.899118 98.7003 2.015C101.326 3.13089 103.656 4.66523 105.672 6.63353C107.689 8.60183 109.283 10.8801 110.424 13.4838C111.565 16.0876 112.144 18.8618 112.144 21.791C112.144 24.7202 111.565 27.6339 110.424 30.2841C109.283 32.9343 107.689 35.2591 105.672 37.2584C103.656 39.2577 101.311 40.8385 98.6691 41.9699C96.0272 43.1013 93.1822 43.6747 90.134 43.6747H79.5042ZM85.2568 32.3299H90.3216C92.1974 32.3299 93.9326 31.8649 95.5114 30.935C97.0902 30.0051 98.3564 28.7653 99.2943 27.2154C100.232 25.6656 100.701 23.9453 100.701 22.039C100.701 20.1327 100.232 18.3968 99.2943 16.8315C98.3564 15.2661 97.0902 14.0108 95.5114 13.0809C93.9326 12.151 92.1818 11.686 90.2591 11.686H85.2568V32.3299Z" fill="#FEEFD6"/>
<path d="M156.711 35.5224C157.336 36.7622 157.664 37.8161 157.711 38.684C157.758 39.552 157.477 40.3114 156.898 40.9778C156.32 41.6442 155.382 42.2952 154.084 42.9616C152.083 43.907 150.536 44.217 149.457 43.8605C148.379 43.5041 147.347 42.3262 146.393 40.2959L135.764 18.7221L125.259 40.3579C124.259 42.2952 123.211 43.4421 122.133 43.7985C121.054 44.155 119.522 43.845 117.568 42.8996C116.271 42.2797 115.333 41.6442 114.723 40.9778C114.113 40.3114 113.832 39.552 113.879 38.684C113.926 37.8161 114.254 36.7622 114.879 35.5224L130.574 3.28566C131.074 2.29377 131.809 1.50335 132.794 0.898908C133.778 0.29447 134.779 0 135.826 0C136.577 0 137.28 0.139486 137.921 0.402959C138.562 0.666432 139.156 1.05389 139.703 1.54984C140.25 2.04579 140.688 2.65023 141.016 3.34766L156.711 35.5224ZM125.884 34.4065L130.636 24.7355H140.954L145.706 34.4065H125.884Z" fill="#FEEFD6"/>
<path d="M168.544 43.6436C166.715 43.6436 165.402 43.3802 164.605 42.8377C163.808 42.2953 163.339 41.5979 163.167 40.7299C162.995 39.862 162.917 38.9321 162.917 37.9402V5.9515C162.917 5.03709 162.995 4.16918 163.167 3.31677C163.339 2.46436 163.808 1.76693 164.605 1.20898C165.402 0.651042 166.746 0.37207 168.669 0.37207C169.967 0.37207 170.904 0.449562 171.514 0.620045C172.124 0.790528 172.561 0.992007 172.827 1.23998C173.093 1.48796 173.374 1.78243 173.671 2.10789L186.615 18.5982H186.239L199.12 2.16989C199.542 1.72043 199.917 1.36397 200.277 1.11599C200.636 0.86802 201.105 0.682039 201.715 0.558051C202.325 0.434064 203.184 0.37207 204.31 0.37207C206.186 0.37207 207.515 0.651042 208.312 1.20898C209.109 1.76693 209.578 2.47985 209.75 3.34777C209.922 4.21568 210 5.13008 210 6.07549V38.0642C210 38.9786 209.922 39.862 209.75 40.7299C209.578 41.5979 209.109 42.2953 208.312 42.8377C207.515 43.3802 206.17 43.6436 204.247 43.6436C202.325 43.6436 201.043 43.3647 200.246 42.8067C199.448 42.2488 198.979 41.5204 198.808 40.637C198.636 39.7535 198.557 38.8546 198.557 37.9402V20.334L191.242 30.191C191.07 30.3925 190.82 30.7025 190.491 31.1209C190.163 31.5394 189.678 31.9113 189.053 32.2368C188.428 32.5623 187.553 32.7328 186.427 32.7328C185.301 32.7328 184.41 32.5623 183.77 32.2368C183.129 31.9113 182.628 31.5394 182.3 31.1519C181.972 30.7645 181.722 30.439 181.55 30.191L174.297 20.396V38.0642C174.297 38.9786 174.218 39.862 174.046 40.7299C173.875 41.5979 173.406 42.2953 172.608 42.8377C171.811 43.3802 170.467 43.6436 168.544 43.6436Z" fill="#FEEFD6"/>
<path d="M5.62751 43.6436C3.79857 43.6436 2.48548 43.3802 1.68825 42.8377C0.891023 42.2953 0.422063 41.5979 0.250112 40.7299C0.0781599 39.862 0 38.9321 0 37.9402V5.9515C0 5.03709 0.0781599 4.16918 0.250112 3.31677C0.422063 2.46436 0.891023 1.76693 1.68825 1.20898C2.48548 0.651042 3.82984 0.37207 5.75257 0.37207C7.05002 0.37207 7.98794 0.449562 8.59759 0.620045C9.20724 0.790528 9.64493 0.992007 9.91068 1.23998C10.1764 1.48796 10.4578 1.78243 10.7548 2.10789L23.6981 18.5982H23.3229L36.2037 2.16989C36.6257 1.72043 37.0009 1.36397 37.3604 1.11599C37.72 0.86802 38.1889 0.682039 38.7986 0.558051C39.4082 0.434064 40.268 0.37207 41.3935 0.37207C43.2693 0.37207 44.598 0.651042 45.3953 1.20898C46.1925 1.76693 46.6615 2.47985 46.8334 3.34777C47.0054 4.21568 47.0835 5.13008 47.0835 6.07549V38.0642C47.0835 38.9786 47.0054 39.862 46.8334 40.7299C46.6615 41.5979 46.1925 42.2953 45.3953 42.8377C44.598 43.3802 43.2537 43.6436 41.331 43.6436C39.4082 43.6436 38.1264 43.3647 37.3292 42.8067C36.5319 42.2488 36.063 41.5204 35.891 40.637C35.7191 39.7535 35.6409 38.8546 35.6409 37.9402V20.334L28.3251 30.191C28.1532 30.3925 27.9031 30.7025 27.5748 31.1209C27.2465 31.5394 26.7619 31.9113 26.1367 32.2368C25.5114 32.5623 24.636 32.7328 23.5105 32.7328C22.385 32.7328 21.494 32.5623 20.8531 32.2368C20.2122 31.9113 19.7119 31.5394 19.3837 31.1519C19.0554 30.7645 18.8053 30.439 18.6333 30.191L11.3801 20.396V38.0642C11.3801 38.9786 11.3019 39.862 11.13 40.7299C10.958 41.5979 10.4891 42.2953 9.69183 42.8377C8.8946 43.3802 7.55025 43.6436 5.62751 43.6436Z" fill="#FEEFD6"/>
</g>
<defs>
<linearGradient id="paint0_linear_14_468" x1="60.5114" y1="-1.62737" x2="60.9999" y2="44" gradientUnits="userSpaceOnUse">
<stop offset="0.36" stop-color="#FEEFD6"/>
<stop offset="1" stop-color="#FCDAAC"/>
</linearGradient>
<clipPath id="clip0_14_468">
<rect width="210" height="44" fill="white"/>
</clipPath>
</defs>
</svg>
