<svg width="24" height="24" viewBox="0 0 24 24" fill="none" xmlns="http://www.w3.org/2000/svg">
<path d="M20.9444 11H3.05556C2.47259 11 2 11.4253 2 11.95V12.05C2 12.5747 2.47259 13 3.05556 13H20.9444C21.5274 13 22 12.5747 22 12.05V11.95C22 11.4253 21.5274 11 20.9444 11Z" fill="#333333"/>
<path d="M20.9444 17H3.05556C2.47259 17 2 17.4253 2 17.95V18.05C2 18.5747 2.47259 19 3.05556 19H20.9444C21.5274 19 22 18.5747 22 18.05V17.95C22 17.4253 21.5274 17 20.9444 17Z" fill="#333333"/>
<path d="M20.9444 5H3.05556C2.47259 5 2 5.42533 2 5.95V6.05C2 6.57467 2.47259 7 3.05556 7H20.9444C21.5274 7 22 6.57467 22 6.05V5.95C22 5.42533 21.5274 5 20.9444 5Z" fill="#333333"/>
</svg>
