<?xml version="1.0" encoding="utf-8"?>
<!-- Generator: Adobe Illustrator 27.5.0, SVG Export Plug-In . SVG Version: 6.00 Build 0)  -->
<svg version="1.1" id="Layer_1" xmlns="http://www.w3.org/2000/svg" xmlns:xlink="http://www.w3.org/1999/xlink" x="0px" y="0px"
	 viewBox="0 0 171.3 525.9" style="enable-background:new 0 0 171.3 525.9;" xml:space="preserve">
<style type="text/css">
	.st0{fill:#FFFCFA;}
	.st1{opacity:0.5;fill:#EDD3B9;}
	.st2{opacity:0.75;fill:url(#SVGID_1_);}
	.st3{fill:#FFFFFF;}
	.st4{opacity:0.25;fill:#CECECE;}
	.st5{fill:url(#SVGID_00000062899964828585270460000008212428162610198434_);}
	.st6{fill:url(#SVGID_00000070096229418027016490000005575056608599059636_);}
	.st7{opacity:0.25;fill:#D8A291;}
	.st8{fill:#CCCCCC;}
	.st9{fill:#F4F3F2;}
	.st10{opacity:0.75;fill:#ADADAD;}
</style>
<path class="st0" d="M166.7,366.1L113.3,56.9V20.2H85.6H58v36.6L4.6,366.1c0,0-16,87.2,11.5,123.9c0,0,13.6,21.2,21.5,25.7
	c0,0,10.8,7.9,19.2-0.3c2.7-2.6,6.6-1.9,8.4,1.6c2.6,4.9,5.5,8.9,10.6,8.9c3.2,0,6.6,0,9.7,0c4,0,6.4,0,9.7,0c5.1,0,8-4,10.6-8.9
	c1.9-3.5,5.8-4.2,8.4-1.6c8.4,8.2,19.2,0.3,19.2,0.3c8-4.5,21.5-25.7,21.5-25.7C182.6,453.3,166.7,366.1,166.7,366.1z"/>
<g>
	<path class="st1" d="M130.2,368.2h27.3l-38.9-242.5c0,9-14.8,16.3-33,16.3c-18.2,0-33.1-7.3-33.1-16.3L13.7,368.3l58.2-0.1H130.2z"
		/>
	<linearGradient id="SVGID_1_" gradientUnits="userSpaceOnUse" x1="52.508" y1="125.751" x2="118.593" y2="125.751">
		<stop  offset="0" style="stop-color:#F7C9A9"/>
		<stop  offset="1" style="stop-color:#FFF5D4"/>
	</linearGradient>
	<ellipse class="st2" cx="85.6" cy="125.8" rx="33" ry="16.3"/>
</g>
<g>
	<path class="st3" d="M61.7,172.1c-14.4-5.2-19.5-12.4-19.5-23.9l-17,98.3c0,16.4,18.8,35.4,60.4,35.4c41.6,0,60.4-19.1,60.4-35.4
		l-17-98.3c0,11.5-4.9,18.8-19.5,24C93.9,177.8,77.3,177.8,61.7,172.1z"/>
	<path class="st4" d="M61.7,172.1c-14.4-5.2-19.5-12.4-19.5-23.9l-17,98.3c0,12.5,10.9,26.5,34.5,32.5l8.3-104.9
		C65.9,173.5,63.8,172.9,61.7,172.1z"/>
</g>
<g>
	<g>
		
			<linearGradient id="SVGID_00000036211697204729618180000013188130153140154496_" gradientUnits="userSpaceOnUse" x1="17.1879" y1="351.0259" x2="179.2553" y2="513.0934">
			<stop  offset="0" style="stop-color:#F7C9A9"/>
			<stop  offset="1" style="stop-color:#FFF5D4"/>
		</linearGradient>
		<path style="fill:url(#SVGID_00000036211697204729618180000013188130153140154496_);" d="M157.6,368.8l-0.4-2c0,0.1,0.1,1.4,0,2
			c-3.4,16.7-32.3,31.8-71.6,31.8s-71.4-14.4-71.4-32.1c0-0.6,0-1.8,0-1.9l-0.3,2c0,0-13.8,77.2,10.5,109.6c0,0,12,18.7,19,22.6
			c0,0,9.6,7,17-0.2c2.4-2.3,5.8-1.7,7.5,1.4c2.3,4.3,4.8,7.9,9.3,7.8c2.9,0,5.9,0,8.5,0c3.5,0,5.7,0,8.5,0c4.5,0,7-3.5,9.3-7.8
			c1.6-3.1,5.1-3.7,7.5-1.4c7.4,7.2,17,0.2,17,0.2c7-3.9,19-22.6,19-22.6C171.2,445.7,157.6,368.8,157.6,368.8z"/>
	</g>
	
		<linearGradient id="SVGID_00000085966636402842188580000008160676905193712524_" gradientUnits="userSpaceOnUse" x1="14.0702" y1="368.2487" x2="157.2071" y2="368.2487">
		<stop  offset="0" style="stop-color:#F7C9A9"/>
		<stop  offset="1" style="stop-color:#FFFDE9"/>
	</linearGradient>
	
		<ellipse style="fill:url(#SVGID_00000085966636402842188580000008160676905193712524_);" cx="85.6" cy="368.2" rx="71.6" ry="32.3"/>
</g>
<g>
	<path class="st7" d="M58,23v32.9v1.4l-15.8,91c0,11.4,5.1,18.6,19.5,23.8c2.1,0.8,4.2,1.4,6.3,2l9-112.8V27.5
		C69.1,26.8,62.4,25.2,58,23z"/>
	<path class="st7" d="M25.3,246.5L4.6,366.1c0,0-16,87.2,11.5,123.9c0,0,13.6,21.2,21.5,25.7c0,0,10.8,7.9,19.2-0.3
		c0.8-0.8,1.8-1.3,2.7-1.5c-18.2-39.5-12.2-80.6-12.2-80.6L59.8,279C36.2,273,25.3,259,25.3,246.5z"/>
</g>
<g>
	<ellipse class="st8" cx="85.6" cy="10.8" rx="33" ry="10.8"/>
	<path class="st9" d="M85.6,21.6c-18.2,0-33-4.8-33-10.8v32.8c0,6,14.8,10.8,33,10.8c18.2,0,33-4.8,33-10.8V10.8
		C118.5,16.8,103.8,21.6,85.6,21.6z"/>
	<path class="st10" d="M77.2,21.3C63,20,52.6,15.8,52.6,10.8v32.8c0,5,10.4,9.2,24.6,10.5V21.3z"/>
</g>
</svg>
