<?xml version="1.0" encoding="utf-8"?>
<!-- Generator: Adobe Illustrator 27.5.0, SVG Export Plug-In . SVG Version: 6.00 Build 0)  -->
<svg version="1.1" id="Layer_1" xmlns="http://www.w3.org/2000/svg" xmlns:xlink="http://www.w3.org/1999/xlink" x="0px" y="0px"
	 viewBox="0 0 154.6 401.4" style="enable-background:new 0 0 154.6 401.4;" xml:space="preserve">
<style type="text/css">
	.st0{fill:#FEE5C6;}
	.st1{fill:#FFF1E1;}
	.st2{fill:#FDD7AE;}
	.st3{fill:#FEE9D5;}
	.st4{fill:#CCCBCA;}
	.st5{fill:#FFFFFF;}
	.st6{fill:#EFEAE9;}
	.st7{fill:#C1BEBC;}
	.st8{fill:#EAE6E4;}
	.st9{fill:#D88977;}
	.st10{fill:#E69A84;}
</style>
<g>
	<g>
		<path class="st0" d="M111.3,40.7H61.4c-2.2,0-3.9,1.8-3.9,3.9v27.6c0,1.1-0.5,2.2-1.3,3c-6.7,5.8-36.1,35-39.7,107.1
			c-0.1,1.3-0.3,3.9-0.3,3.9c-0.9,1.6-1.3,3.7,0,6.4c0,0,0,2.7,0,4.1c0,0,0.2,172,0.2,172.5c0.7,3.9,11.6,22.5,26,22.9
			c0.3,0,3.6-0.8,6.3-2.8c2-1.5,4.9-0.7,5.9,1.6l1.5,3.4c0.4,0.9,1.2,1.6,2.1,2c5.9,2.4,28.4,10.1,51.2,0.1c1-0.4,1.7-1.2,2.1-2.2
			l0.4-1.1c1.2-3.3,5.8-3.5,7.3-0.3h0c0.8,1.7,2.7,2.6,4.5,2.2c7.9-1.9,28.1-8.5,30-25.5c0-0.2,0-0.3,0-0.5l0-172.2
			c0-0.1,0-0.1,0-0.2c0-0.4,0.1-4,0.1-4c1.2-1.3,1-5.6,0-6.4c0,0,0-0.4,0-0.5c-0.6-22.1-5.6-73.1-36.9-110.6
			c-0.6-0.7-0.9-1.5-0.9-2.4l-0.6-28.2C115.2,42.4,113.5,40.7,111.3,40.7z"/>
		<path class="st1" d="M153.7,185.6c-0.6-22.1-5.6-73.1-36.9-110.6c-0.6-0.7-0.9-1.5-0.9-2.4l-0.6-28.2c0-2.1-1.8-3.9-3.9-3.9h-11.2
			v34.1c0,0,32.3,48.5,34.3,117.3v185.7c0,0,2.2,3.4-0.7,13.9c8.7-3.7,18.6-10.5,19.9-22.1c0-0.2,0-0.3,0-0.5V196.7
			c0-0.1,0-0.1,0-0.2c0-0.4,0.1-4,0.1-4c1.2-1.3,1-5.6,0-6.4C153.7,186.1,153.7,185.8,153.7,185.6z"/>
		<path class="st2" d="M77.3,40.7h-16c-2.2,0-3.9,1.8-3.9,3.9v27.6c0,1.1-0.5,2.2-1.3,3c-6.7,5.8-36.1,35-39.7,107.1
			c-0.1,1.3-0.3,3.9-0.3,3.9c-0.9,1.6-1.3,3.7,0,6.4c0,0,0,2.7,0,4.1c0,0,0.2,172,0.2,172.5c0.7,3.9,11.6,22.5,26,22.9
			c0.3,0,3.6-0.8,6.3-2.8c1.5-1.1,3.5-1,4.8,0.1c-1.8-8.3-3.3-15.2-3.3-15.2l1-172.5c-7-66.2,26.3-124.2,26.3-124.2V40.7z"/>
	</g>
	<path class="st3" d="M153.7,186.3c-74.3,26-137.6,0-137.6,0c-0.9,1.6-1.3,3.7,0,6.4c64,25,137.7,0,137.7,0
		C155,191.4,154.8,187.1,153.7,186.3z"/>
	<path class="st3" d="M153.7,330.6c-74.3,26-137.6,0-137.6,0c-0.9,1.6-1.3,3.7,0,6.4c64,25,137.7,0,137.7,0
		C155,335.7,154.8,331.4,153.7,330.6z"/>
	<g>
		<g>
			<g>
				<path class="st4" d="M132.1,91c0.8-1,2-1.4,3.3-1.2l1.1,0.2c2.4,0.5,4.6-1.7,3.9-4.2l0.1-11.6c-0.6,1.4-2.2,2.4-3.9,1.7
					l-13.9-5.2c-1.4-0.5-3,0-3.7,1.3l-1.9,3.1c4.9,5.9,9.2,12.1,12.9,18.5L132.1,91z"/>
				<g>
					<path class="st5" d="M65.5,0h37.1c8.8,0,15.9,7.1,15.9,15.9l-0.5,13.5c-0.1,1.3-0.4,2.6-0.9,3.8c-2,4.1,0.3,8.7,0.6,9.1
						L140,71.4c1.6,2.5-0.9,5.6-3.7,4.6l-13.9-5.2c-1.4-0.5-3,0-3.7,1.3l-23,38.4c-1.2,2-4.2,2-5.3-0.1L79.6,91
						c-0.6-1-1.7-1.6-2.9-1.6l-28.9-3.1c-0.5,0-8.9,5.5-9.3,5.8l-12.5,8.1c-1,0.6-2.2,0.7-3.2,0.1L2.2,88.4c-3-1.7-2.9-6,0-7.6
						l28.2-15.9c0.8-0.4,1.3-1.2,1.5-2.1l1.8-9.3c0.2-1.1,0.8-2,1.8-2.7L51,42.3c0.5-0.4,0.9-8.5-0.2-11.5c-1.6-4.3-1.9-9-1.3-13.6
						l0.1-1C49.4,7.4,56.6,0,65.5,0z"/>
					<path class="st6" d="M76.1,0H65.5c-8.9,0-16.1,7.4-15.9,16.3l-0.1,1c-0.6,4.6-0.3,9.3,1.3,13.6c1.1,2.9,0.7,11.1,0.2,11.5
						l-15.6,8.5c-0.9,0.6-1.5,1.6-1.8,2.7l-1.8,9.3c-0.2,0.9-0.7,1.7-1.5,2.1L2.2,80.8c-3,1.7-3,5.9,0,7.6l20.7,11.9
						c1,0.6,2.2,0.5,3.2-0.1l12.5-8.1c0.3-0.2-0.7-8.4,1.9-10.1l23.8-38.9L76.1,0z"/>
				</g>
			</g>
			<g>
				<path class="st4" d="M38.6,92.2v-5.3c0-1.3,1.2-2.3,2.5-2l6.8,1.6L38.6,92.2z"/>
				<path class="st4" d="M40.5,82.1L60.4,50c0.4-0.6,0.5-1.3,0.3-1.9l-0.9-4.4c-0.1-0.4-0.7-0.5-0.8-0.1L40.5,82.1z"/>
				<path class="st4" d="M73.3,47.6l-3,8.1c-0.1,0.2-0.1,0.4,0,0.5l5.8,20.6c0.3,1,1.7,0.8,1.7-0.2V56.1c0-0.1,0-0.2,0-0.3l-2.9-8.2
					C74.7,46.8,73.6,46.8,73.3,47.6z"/>
				<path class="st4" d="M34.6,61.7l13.1-8.3c0.8-0.5,1.3-1.3,1.5-2.2l1.6-8.3c0-0.2-0.2-0.3-0.3-0.1L34.4,61.4
					C34.3,61.6,34.5,61.8,34.6,61.7z"/>
				<path class="st4" d="M99.4,46.2l-0.5,6.5c-0.1,0.9,0.3,1.9,1.1,2.4l11.6,8.7c0.3,0.2,0.7-0.1,0.5-0.4l-12-17.4
					C99.8,45.8,99.4,45.9,99.4,46.2z"/>
			</g>
		</g>
		<path class="st7" d="M58.7,1.6C63.8,3,72.8,3.9,83.2,3.9c11.1,0,20.8-1.1,25.6-2.7c-1.9-0.8-4-1.2-6.1-1.2H65.5
			C63,0,60.7,0.6,58.7,1.6z"/>
	</g>
	<g>
		<path class="st5" d="M16.1,196.8c0,0,59.1,27.1,137.5,0v124c0,0-36.3,36.4-137.5,5.7V196.8z"/>
		<path class="st8" d="M51,206.3L51,206.3c-21.9-3.5-34.9-9.5-34.9-9.5v129.7c12.6,3.8,24.2,6.6,34.9,8.5V206.3z"/>
	</g>
	<g>
		<g>
			<path class="st9" d="M51,42.3c9.2,1.9,20.9,3.5,34.3,3.4c12.6-0.1,23.6-1.6,32.4-3.4c0.3,0,0.8,0,1.4-0.3c2.3-1,2.3-3.7,0-4.6
				l-0.2-0.1c-0.4-0.2-0.9-0.3-1.4-0.3c-8.7,1.9-19.7,3.6-32.6,3.6C71.5,40.7,60,39,51.1,37c-0.2,0-0.4,0-0.7,0.1
				c-0.2,0-0.5,0.1-0.7,0.2l-0.2,0.1c-2.3,1-2.2,3.8,0.2,4.7l0.1,0C50.2,42.2,50.6,42.3,51,42.3z"/>
		</g>
		<path class="st10" d="M51,37c8.9,2,20.5,3.7,33.9,3.6c12.9,0,24.1-1.7,32.8-3.6c0.3,0,0.8,0,1.4-0.3c2.3-1,2.3-3.7,0-4.6l-0.2-0.1
			c-0.4-0.2-0.9-0.3-1.4-0.3c-8.2,2.2-19.4,4.2-32.6,4.3c-13.8,0.1-25.4-2.1-33.8-4.3c-0.2,0-0.4,0-0.7,0.1c-0.2,0-0.5,0.1-0.7,0.2
			l-0.2,0.1c-2.3,1-2.2,3.8,0.2,4.7l0.1,0C50.2,37,50.6,37,51,37z"/>
	</g>
</g>
</svg>
