<?xml version="1.0" encoding="utf-8"?>
<!-- Generator: Adobe Illustrator 27.5.0, SVG Export Plug-In . SVG Version: 6.00 Build 0)  -->
<svg version="1.1" id="Layer_1" xmlns="http://www.w3.org/2000/svg" xmlns:xlink="http://www.w3.org/1999/xlink" x="0px" y="0px"
	 viewBox="0 0 130.9 463.6" style="enable-background:new 0 0 130.9 463.6;" xml:space="preserve">
<style type="text/css">
	.st0{fill:#EDEDED;}
	.st1{fill:url(#SVGID_1_);}
	.st2{fill:#F0F7EE;}
	.st3{fill:url(#SVGID_00000110428924367864951410000007795069584248762272_);}
	.st4{fill:url(#SVGID_00000176743391561533675080000001314825885755824309_);}
	.st5{fill:#E3D64B;}
	.st6{fill:#D1BC1F;}
	.st7{fill:#F4EBA9;}
	.st8{opacity:0.7;fill:#FFFFFF;}
</style>
<g>
	<g>
		<path class="st0" d="M124.9,418.5c-0.2-0.7-0.6-1.4-0.9-2c-0.9-1.6-2.9-5-4.7-8.3c-0.4-0.8-0.8-1.6-1-2.5l-0.7-2.5
			c-0.4-1.4-0.7-2.8-0.9-4.3H14.1c-0.2,1.4-0.5,2.9-0.9,4.3l-0.5,2c-0.2,0.9-0.6,1.7-1,2.5c-1.9,3.5-4,7.2-5,8.9
			c-0.4,0.6-0.7,1.3-0.9,2c-2.1,5.8-2.9,11.9-3.2,16.6c-0.2,2.7,0.5,5.4,2.1,7.6c2.9,4.1,9.1,10.8,20.8,15.6
			c10,3.2,23.4,5.8,39.9,5.3c16.2,0.5,29.6-2.1,39.5-5.2c0.3-0.1,0.6-0.2,1-0.3c11.1-4.6,17.1-10.8,20-14.9c1.6-2.2,2.4-5,2.2-7.8
			C127.8,430.5,127,424.4,124.9,418.5z"/>
		<linearGradient id="SVGID_1_" gradientUnits="userSpaceOnUse" x1="65.4499" y1="7.4076" x2="65.4499" y2="399.1442">
			<stop  offset="0.1157" style="stop-color:#FFFFFF"/>
			<stop  offset="0.8128" style="stop-color:#A5CA61"/>
			<stop  offset="1" style="stop-color:#008D36"/>
		</linearGradient>
		<path class="st1" d="M130.9,432.4c-0.3-4.6-1.1-10.6-3.3-16.3c-0.3-0.7-0.6-1.3-1-1.9c-1-1.5-3-4.9-4.9-8.1
			c-0.4-0.8-0.8-1.6-1.1-2.4l-0.7-2.4c-2.7-8.8-1.7-19.3-1.4-21.7c0-0.4,0.1-0.8,0.1-1.2l10.8-179.5c0.1-1,0.1-2,0-3
			c-2.8-31.9-23.8-52.1-29.8-57.3c-1.5-1.3-2.8-2.7-3.9-4.4c-3.6-5.6-5.3-12.5-5.9-15.9c-0.2-1.2-0.4-2.4-0.4-3.6L86.8,5.2H66h-1
			H44.2l-2.6,110.5c0,0.5-0.1,0.9-0.1,1.4c-0.4,2.5-2,10.6-6.1,17.1c-1.1,1.7-2.4,3.1-3.9,4.4c-6.1,5.2-27.1,25.3-29.8,57.3
			c-0.1,1-0.1,2,0,3l10.8,179.5c0,0.4,0.1,0.8,0.1,1.2c0.3,2.4,1.3,12.9-1.4,21.7l-0.6,1.9c-0.3,0.8-0.6,1.7-1,2.4
			c-1.9,3.4-4.2,7-5.2,8.6c-0.4,0.6-0.7,1.2-1,1.9c-2.1,5.6-3,11.5-3.3,16.1c-0.2,2.6,0.6,5.3,2.2,7.4c3,4,9.5,10.5,21.7,15.1l0,0
			c10.4,3.1,24.5,5.6,41.6,5.1c16.9,0.5,30.8-2,41.2-5c0.3-0.1,0.7-0.2,1-0.3c11.5-4.4,17.8-10.5,20.9-14.5
			C130.2,437.8,131,435.1,130.9,432.4z"/>
	</g>
	<path class="st2" d="M87.2,25.7H65.4h-1H43.8c0,0-2.7,3-0.2,8.3h20.8h1h22C90,28.8,87.2,25.7,87.2,25.7z"/>
	<g>
		
			<linearGradient id="SVGID_00000124151824767973668960000017234326013798199707_" gradientUnits="userSpaceOnUse" x1="10.4045" y1="324.6853" x2="121.9544" y2="324.6853">
			<stop  offset="1.407848e-02" style="stop-color:#FFFCEB;stop-opacity:0.6"/>
			<stop  offset="1" style="stop-color:#95C11F"/>
			<stop  offset="1" style="stop-color:#B4CC04"/>
		</linearGradient>
		<path style="fill:url(#SVGID_00000124151824767973668960000017234326013798199707_);" d="M119.1,410.2c-0.2-0.6-0.5-1.2-0.8-1.8
			c-0.8-1.4-2.6-4.4-4.2-7.4c-0.4-0.7-0.7-1.5-0.9-2.2l-0.6-2.2c-2.3-8-1.4-17.6-1.2-19.8c0-0.4,0.1-0.7,0.1-1.1l9.2-163.7
			c0.1-0.9,0.1-1.9,0-2.8c-0.3-3.5-0.8-6.8-1.5-10H13.3c-0.7,3.2-1.2,6.5-1.5,10c-0.1,0.9-0.1,1.9,0,2.8l9.2,163.7
			c0,0.4,0.1,0.7,0.1,1.1c0.2,2.2,1.1,11.8-1.2,19.8l-0.5,1.7c-0.2,0.8-0.5,1.5-0.9,2.2c-1.7,3.1-3.6,6.4-4.4,7.8
			c-0.3,0.6-0.6,1.1-0.8,1.7c-1.8,5.1-2.5,10.5-2.8,14.7c-0.1,2.4,0.5,4.8,1.8,6.7c2.6,3.7,8.1,9.5,18.5,13.7
			c8.9,2.8,20.8,5.1,35.5,4.7c14.4,0.4,26.3-1.8,35.1-4.6c0.3-0.1,0.6-0.2,0.9-0.3c9.8-4,15.2-9.6,17.8-13.2c1.4-2,2.1-4.4,2-6.9
			C121.7,420.9,121,415.4,119.1,410.2z"/>
		
			<linearGradient id="SVGID_00000000918275870355645330000005919862908432072378_" gradientUnits="userSpaceOnUse" x1="-6.6519" y1="179.1946" x2="95.8411" y2="207.4674">
			<stop  offset="1.407848e-02" style="stop-color:#FFFCEB;stop-opacity:0.6"/>
			<stop  offset="1" style="stop-color:#95C11F"/>
			<stop  offset="1" style="stop-color:#B4CC04"/>
		</linearGradient>
		
			<ellipse style="fill:url(#SVGID_00000000918275870355645330000005919862908432072378_);" cx="66.2" cy="199.3" rx="53.2" ry="12.4"/>
	</g>
	<g>
		<polygon class="st5" points="41.9,18.2 43.5,20.9 45.1,18.2 46.6,20.9 48.2,18.2 49.8,20.9 51.4,18.2 52.9,20.8 54.4,18.2 
			56,20.9 57.6,18.2 59.1,20.8 60.7,18.2 62.3,20.9 63.9,18.2 65.4,20.9 67,18.2 68.6,20.9 70.2,18.2 71.7,20.8 73.2,18.2 
			74.8,20.9 76.4,18.2 77.9,20.9 79.5,18.2 81.1,20.9 82.7,18.2 84.2,20.9 85.8,18.2 87.4,20.9 89,18.2 89.9,19.8 88.4,2.6 
			65.6,2.6 65.4,2.6 42.6,2.6 41.1,19.6 		"/>
		<polygon class="st6" points="59.8,2.6 42.6,2.6 41.1,19.6 41.9,18.2 43.5,20.9 45.1,18.2 46.6,20.9 48.2,18.2 49.8,20.9 
			51.4,18.2 52.9,20.8 54.4,18.2 56,20.9 57.6,18.2 59.1,20.8 59.8,19.8 		"/>
		<ellipse class="st7" cx="65.4" cy="2.6" rx="22.9" ry="2.6"/>
	</g>
	<path class="st8" d="M84.1,141c2.1-0.2,4.3-0.5,6.2-0.9c1.2-0.3,2.5,0.1,3.3,1.1c6.4,7.5,32.2,38.9,30.6,57.8l-2.5,46.1
		c-0.1,1.5-1.1,2.8-2.6,3.1l-8.5,2c-2.1,0.5-4.2-1.2-4.1-3.4l1.2-47.1c0,0,1.2-14.5-26.1-53.4C80.2,144.1,81.6,141.2,84.1,141z"/>
</g>
</svg>
